<svg xmlns="http://www.w3.org/2000/svg" xmlns:xlink="http://www.w3.org/1999/xlink" viewBox="0 0 358.98 287.57"><defs><style>.cls-1{fill:url(#Degradado_sin_nombre_160);}</style><linearGradient id="Degradado_sin_nombre_160" x1="24.09" y1="302.13" x2="320.31" y2="5.92" gradientUnits="userSpaceOnUse"><stop offset="0" stop-color="#47aebd"/><stop offset="1" stop-color="#a15cce"/></linearGradient></defs><g id="Capa_2" data-name="Capa 2"><g id="Capa_1-2" data-name="Capa 1"><path id="Capa_2-2" data-name="Capa 2" class="cls-1" d="M41.65,24C43.23,7.19,48.43.26,59.41,0A17.67,17.67,0,0,1,74.3,7.28c3.82,4.86,3.7,10.64,3.61,16.53h35.9V17.66a18,18,0,0,1,35.9,0c.06,2,0,3.94,0,6.13h36c-.55-7.42.2-14.39,6.31-19.48A17.72,17.72,0,0,1,204.11,0c11,.25,16.25,7.15,17.74,23.7h35.73c-.54-7.6.29-14.8,6.85-19.87A17.76,17.76,0,0,1,276.65,0c10.75.61,15.94,7.75,17,23.93h36.83c10.15,0,16.95,6.41,17.49,16.59q2.79,52.88,5.45,105.77,2.71,52.5,5.53,105c.56,10.34-6.47,18.06-16.85,18.21h-6.35c-.39,2.18-.57,4.15-1.09,6a16.37,16.37,0,0,1-14.66,12c-1.37.08-2.74,0-4.11,0H19.43C6.22,287.58,0,281.34,0,268.1V43.1Q0,24,19,24Zm102.17,251.6H316.21c6.09,0,7.22-1.12,7.22-7.14V84.21H143.82Zm-12.32,0V84.21H12.08c0,.93-.1,1.55-.1,2.17v183c0,4.77,1.44,6.17,6.28,6.17h110.4ZM293.72,36C292.4,52.51,287.2,59.52,276.32,60a17.78,17.78,0,0,1-12.14-4c-6.33-5.07-7.15-12.15-6.57-19.68h-36c0,2.2.06,4.18,0,6.15a18,18,0,0,1-35.89-.07c-.06-2.06,0-4.12,0-6.11h-36c0,2.16.05,4.13,0,6.1a18,18,0,0,1-35.9.1c-.06-2.07,0-4.14,0-6.1h-36c0,2.29.07,4.29,0,6.28A17.95,17.95,0,0,1,42,42.47c-.07-2.08,0-4.16,0-6.47-8.8,0-17.14-.06-25.47,0a4.07,4.07,0,0,0-4.4,4.19C12,50.66,12,61.11,12,71.74H323.39c0-10.62.07-21.06-.05-31.5A4.08,4.08,0,0,0,319.39,36H319C310.62,35.94,302.28,36,293.72,36Zm41.83,221.63h6.1c3.93-.11,5.67-1.94,5.46-5.88q-1.46-27.64-3-55.29l-5.76-105q-1.22-21.79-2.47-43.6h-.35ZM53.91,30c0,3.87-.08,7.74,0,11.6s2.54,6.36,5.92,6.38,5.93-2.5,6-6.31q.17-11.59,0-23.2c0-3.82-2.55-6.35-5.92-6.37s-5.88,2.5-6,6.3S53.91,26.09,53.91,30Zm83.84.33c0-3.87.07-7.73,0-11.6-.09-4.06-2.55-6.68-6.06-6.63s-5.83,2.58-5.87,6.42q-.13,11.6,0,23.2c.05,3.78,2.65,6.31,6,6.26s5.78-2.59,5.88-6.42S137.75,34,137.75,30.28Zm71.87-.11c0-3.87.07-7.74,0-11.6s-2.43-6.42-5.78-6.52c-3.5-.11-6.1,2.52-6.14,6.53q-.12,11.42,0,22.83c0,3.86,2.42,6.41,5.78,6.52s6-2.53,6.14-6.54C209.69,37.65,209.62,33.91,209.62,30.17ZM281.49,30c0-3.86.09-7.73,0-11.6s-2.57-6.34-6-6.34-5.9,2.52-5.95,6.33q-.15,11.6,0,23.2c0,3.81,2.57,6.35,5.94,6.35s5.86-2.52,6-6.34S281.49,33.86,281.49,30ZM185.79,143.8a18,18,0,1,1,17.84-18.16v.27A18,18,0,0,1,185.79,143.8Zm-.23-23.92a6,6,0,1,0,6.07,5.92v-.07A6,6,0,0,0,185.56,119.88Zm66,5.87a17.81,17.81,0,1,1,0-.14Zm-17.78-5.87a6,6,0,1,0,5.78,6.21V126A6,6,0,0,0,233.76,119.88Zm47.8,23.92a18,18,0,1,1,17.9-18.1V126A18,18,0,0,1,281.56,143.8Zm.09-23.92a6,6,0,1,0,5.81,6.18V126A6,6,0,0,0,281.65,119.88Zm-78,53.81a17.83,17.83,0,1,1,0-.13Zm-17.94,6a6,6,0,1,0-6-6v.06a6,6,0,0,0,6,6Zm65.85-5.94a17.92,17.92,0,1,1,0-.17Zm-17.94,6a6,6,0,1,0-6-6v.06a6,6,0,0,0,6,5.91Zm47.92,12a18,18,0,1,1,17.94-18.06v.27A18,18,0,0,1,281.52,191.72Zm5.94-18.09a6,6,0,1,0-5.91,6.09h.07A6,6,0,0,0,287.46,173.63Zm-83.83,47.91a18,18,0,1,1-18.18-17.82h.24A18,18,0,0,1,203.63,221.54Zm-17.86-5.82a6,6,0,1,0,5.86,6.14v-.08A6,6,0,0,0,185.77,215.72Zm47.72,23.93a18,18,0,1,1,18-18V222A18,18,0,0,1,233.49,239.65Zm.19-23.93a6,6,0,1,0,5.86,6.14v-.08a6,6,0,0,0-5.86-6.06Zm-173.79-.4C51.48,213.75,44.17,210.55,38,205c-8.86-8-13.68-18-14-30S23.94,151,24,139c0-5.09,2.19-7.2,7.35-7.23H48V115.72c0-5.87,2-7.85,7.85-7.87h21c4.89,0,7.07,2.22,7.12,7.09V131.8H99.68c6.15,0,8.12,1.93,8.12,8V172c0,22.13-13,38.27-34.59,43a9.24,9.24,0,0,0-1.33.49c0,4.9-.21,9.88.15,14.82.08,1.18,1.85,2.8,3.16,3.2,1.83.56,4,0,5.94.19,2.46.19,3.9-.45,5.22-2.9a17.3,17.3,0,0,1,19.74-8.51,17.9,17.9,0,0,1,.92,34.54,17.61,17.61,0,0,1-20.59-8.14c-1.35-2.49-2.79-3.43-5.47-3.08a35.83,35.83,0,0,1-4.86,0c-9.93-.06-16.14-6.21-16.2-16.06C59.87,224.87,59.89,220.15,59.89,215.32Zm0-95.3v16.14c0,5.59-2.08,7.62-7.71,7.64h-16v12h16c5.64,0,7.7,2,7.73,7.62v16.1H71.55a5,5,0,0,0,.27-.93q0-7.29.05-14.59c0-6.35,1.88-8.2,8.28-8.21H95.63v-12H79.8c-5.9,0-7.9-2-7.92-7.81V120Zm24,47.91v16.5c0,5.12-2.18,7.26-7.3,7.29h-21c-5.62,0-7.64-2.06-7.67-7.68V168H36.08c-1.13,13.83,3.06,25,15.35,31.83,10.89,6,21.91,5.31,32.05-2s13.31-17.75,12.14-29.93Zm18.26,65.77a6,6,0,1,0,5.67,6.31V240a6,6,0,0,0-5.71-6.25Z"/></g></g></svg>