<svg xmlns="http://www.w3.org/2000/svg" xmlns:xlink="http://www.w3.org/1999/xlink" viewBox="0 0 57.89 57.98"><defs><style>.cls-1{fill:url(#Degradado_sin_nombre_160);}</style><linearGradient id="Degradado_sin_nombre_160" x1="6.76" y1="64.74" x2="63.38" y2="8.12" gradientUnits="userSpaceOnUse"><stop offset="0" stop-color="#47aebd"/><stop offset="1" stop-color="#a15cce"/></linearGradient></defs><g id="Capa_2" data-name="Capa 2"><g id="Capa_1-2" data-name="Capa 1"><path id="Capa_1-2-2" data-name="Capa 1-2" class="cls-1" d="M57.89,5.08A5.15,5.15,0,0,1,56.19,8a4.45,4.45,0,0,1-4.87.47.62.62,0,0,0-.9.13Q44.09,15,37.73,21.34a.6.6,0,0,0-.12.86,4.48,4.48,0,1,1-7.92,0c.14-.25.27-.45,0-.73-1.87-1.84-3.71-3.7-5.56-5.56a1,1,0,0,0-.17-.12,4.52,4.52,0,0,1-4.94,0L8.3,26.55c1.14,2.66.7,4.83-1.3,6.18a4.51,4.51,0,0,1-5.66-.54,4.54,4.54,0,0,1-.55-5.71c1.35-2,3.45-2.41,6.27-1.24l.32-.3q5-5,10-10a.6.6,0,0,0,.13-.86,4.47,4.47,0,1,1,7.88.05.54.54,0,0,0,.12.77q2.67,2.64,5.31,5.33a.51.51,0,0,0,.72.1,4.38,4.38,0,0,1,4.32,0,.6.6,0,0,0,.57,0c4.44-4.39,8.86-8.79,13.18-13.09A15,15,0,0,1,49,5,4.4,4.4,0,0,1,52.59.09a1.76,1.76,0,0,0,.2-.09h1.13A16.37,16.37,0,0,1,56.1,1a4.54,4.54,0,0,1,1.78,2.89V5.08ZM1.68,29a2.82,2.82,0,0,0,2.81,2.86,2.84,2.84,0,0,0,0-5.67A2.83,2.83,0,0,0,1.68,29ZM56.21,4.5a2.81,2.81,0,0,0-2.82-2.84A2.85,2.85,0,0,0,50.55,4.5a2.83,2.83,0,1,0,5.66,0ZM21.4,14.85A2.83,2.83,0,0,0,24.25,12a2.83,2.83,0,1,0-5.65,0,2.82,2.82,0,0,0,2.8,2.86ZM33.66,27.1a2.84,2.84,0,1,0-2.83-2.82,2.83,2.83,0,0,0,2.84,2.83ZM47.71,58c0-.23,0-.45,0-.68V17.12h9.53c.23,0,.45,0,.68,0V58Zm1.64-1.71h6.83V18.84H49.35ZM15.94,58a5.29,5.29,0,0,1,0-.56V33.1H26.12V58Zm1.63-1.71h6.82V34.77H17.57ZM31.77,58V34.33H42c0,.19,0,.38,0,.56V57.42a5.29,5.29,0,0,1-.05.56H31.77Zm8.54-22H33.49v20.3h6.82ZM0,58V39.21H10.16c0,.14,0,.28,0,.43v18c0,.13,0,.26,0,.39Zm8.53-1.71V40.87H1.71v15.4Z"/></g></g></svg>