<?xml version="1.0" encoding="utf-8"?>
<!-- Generator: Adobe Illustrator 26.2.1, SVG Export Plug-In . SVG Version: 6.00 Build 0)  -->
<svg version="1.1" id="Capa_1" xmlns="http://www.w3.org/2000/svg" xmlns:xlink="http://www.w3.org/1999/xlink" x="0px" y="0px"
	 viewBox="0 0 359.2 359.4" style="enable-background:new 0 0 359.2 359.4;" xml:space="preserve">
<style type="text/css">
	.st0{fill:url(#Capa_2_00000011737846702897054120000006339876175170627978_);}
</style>
<linearGradient id="Capa_2_00000128478517789607253250000001311195131467962302_" gradientUnits="userSpaceOnUse" x1="20.2852" y1="317.4814" x2="287.2852" y2="75.4814">
	<stop  offset="0.1678" style="stop-color:#47AEBD"/>
	<stop  offset="1" style="stop-color:#C61A88"/>
</linearGradient>
<path id="Capa_2_00000039829755233599611100000017473691179717650619_" style="fill:url(#Capa_2_00000128478517789607253250000001311195131467962302_);" d="
	M47.9,137.8V8.8c0-7.1,1.7-8.8,8.8-8.8h198c7.1,0,8.8,1.7,8.8,8.8V24c5.5,0,10.8,0,16.1,0c5.9,0,7.9,2,7.9,7.8c0,27.8,0,55.7,0,83.5
	v4.5c2.4,0,4.6,0,6.8,0c11.8,0.2,23.8-0.4,35.5,0.9c16.2,1.8,29,17,29.4,33.4c0,2.2-0.4,4.5-1,6.6c-15.3,55.7-30.7,111.4-46,167.2
	c-0.4,1.7-0.8,3.4-1,5.1c-2.5,16.1-14.4,26.5-30.7,26.5c-39.5,0.1-79.1,0.1-118.6,0H32.3C12.6,359.4,0,346.9,0,327.2
	C0,274.8,0,222.4,0,170c0-19.7,12.5-32.2,32.3-32.2L47.9,137.8z M155.5,347.4h123.9c13,0,20.1-7.2,20.1-20.2c0-42.4,0-84.9,0-127.3
	c0-13.2-7.1-20.2-20.4-20.2c-48.2,0-96.3,0-144.5,0.1c-3.5,0.1-6.9-1.3-9.2-3.9c-7.8-8.1-15.8-16-23.8-23.8
	c-1.5-1.4-3.4-2.2-5.4-2.3c-21.3-0.1-42.7-0.1-64-0.1c-13,0-20.1,7.1-20.1,20.2v157.2c0,13.2,7.1,20.3,20.4,20.3H155.5z M60,137.8
	c13.4,0,26.5,0.1,39.6-0.1c3-0.2,5.9,1,8,3.3c8,8.2,16.2,16.2,24.3,24.4c1.5,1.6,3.7,2.5,5.9,2.4c36.6-0.1,73.1-0.1,109.7-0.1h3.8
	V12.2H60V137.8z M311.4,282.7h0.6c0.2-0.5,0.4-0.9,0.5-1.4c11.5-41.7,23-83.3,34.5-125c0.3-1.2,0.4-2.4,0.2-3.7
	c-1.1-10.1-8.8-18.3-18.8-20.2c-5.2-0.9-10.7-0.6-16-0.7c-8.2-0.1-16.4,0-24.9,0v36.4c17,5.7,24,15.4,24,33L311.4,282.7L311.4,282.7
	z M263.8,36.1v131.4h11.5V36.1H263.8z M125.8,233.6c0-9.9,0-19.1,0-28.3c0-5.6,2-7.6,7.7-7.6c14.8,0,29.7,0,44.5,0
	c5.6,0,7.6,2,7.6,7.7c0,9.2,0,18.4,0,28.3h3.7c8.4,0,16.7,0,25.1,0c4.9,0,7.1,2.2,7.2,7c0,15.2,0,30.4,0,45.7c0,5-2.2,7.2-7.4,7.2
	c-9.3,0-18.7,0-28.5,0v15c0,4.6,0,9.2,0,13.8c-0.1,4.9-2.2,7-7.1,7.1c-15.2,0-30.4,0-45.7,0c-4.9,0-7.1-2.2-7.1-7.1
	c0-9.5,0-18.9,0-28.8h-12.9c-5.5,0-11,0.1-16.5,0c-4.2-0.1-6.6-2.3-6.6-6.5c-0.1-15.6-0.1-31.2,0-46.8c0-4.4,2.3-6.6,6.8-6.6
	c8.4-0.1,16.7,0,25.1,0L125.8,233.6z M209.3,281.5v-35.9h-26.8c-7.1,0-8.8-1.7-8.8-8.8v-27h-35.9c0,9.7,0,19.1,0,28.6
	c0,4.9-2.2,7.1-7.1,7.1c-4.5,0.1-9,0-13.5,0h-15.1v35.9c9.1,0,18,0,26.8,0c7.1,0,8.8,1.7,8.8,8.8c0,8.9,0,17.9,0,26.9h35.9
	c0-9.4,0-18.6,0-27.8c0-5.9,2-7.9,7.8-7.9C190.7,281.5,199.9,281.5,209.3,281.5L209.3,281.5z M71.9,119.6c0-6.5-0.2-12.6,0-18.7
	c0.4-9.3,7.9-16.7,17.2-17c2.1-0.1,4.4,0.4,6.3-0.2s4.7-1.8,5.5-3.5s0.3-4.6-0.7-6.4c-2.7-4.5-4.5-9.2-4.4-14.4
	c0.1-5.5-0.3-11.1,0.7-16.4c2.3-12,13.3-20.2,25.4-19c12.1,1.1,21.4,11.1,21.8,23.2c0.1,4,0,8,0,12c0.1,5.4-1.8,10.2-4.5,14.8
	c-1.1,2-1.3,4.3-0.6,6.4c0.7,1.6,3.3,2.9,5.2,3.3c3.4,0.7,7,0.1,10.4,0.9c7.3,1.6,12.7,7.8,13.3,15.3c0.4,6.4,0.1,12.9,0.1,19.6
	h-11.9c0-5.4,0-10.7,0-16.1c0-5.6-2.1-7.7-7.7-7.6c-4.8,0-9.7,0.3-13.6-2.9c-3.2-2.6-5.7-6-9-9.5H113c-3.8,9.6-11.4,13-21.6,12.4
	c-5.4-0.3-7.5,2-7.5,7.4s0,10.7,0,16.3L71.9,119.6z M107.8,53.9c0,2.1-0.1,4.2,0,6.4c0.1,6.6,5.6,11.8,12.2,11.7
	c6.3-0.1,11.5-5.2,11.7-11.5c0.2-4.4,0.2-8.7,0-13.1c-0.2-6.6-5.8-11.7-12.4-11.5c-6.3,0.2-11.4,5.4-11.5,11.7
	C107.7,49.7,107.8,51.8,107.8,53.9z M209.6,24c7.6,0,15.2,0,22.8,0c4.9,0,7.1,2.2,7.1,7.1c0.1,7.2,0.1,14.5,0,21.7
	c0,4.9-2.2,7.1-7.1,7.1c-15.2,0-30.4,0-45.7,0c-4.9,0-7.1-2.2-7.1-7.1c-0.1-7.2-0.1-14.5,0-21.7c0-4.9,2.2-7.1,7.1-7.1
	C194.4,23.9,202,24,209.6,24z M227.4,47.9V36.2H192v11.7L227.4,47.9z M179.8,83.6V72.1h59.6v11.5H179.8z M239.4,107.7h-59.4V96.1
	h59.4V107.7z M179.8,131.5V120h59.6v11.5H179.8z M179.8,155.5V144h59.6v11.5L179.8,155.5z"/>
<image style="overflow:visible;" width="482" height="385" xlink:href="96E78710.jpg"  transform="matrix(1 0 0 1 423 -127.1102)">
</image>
</svg>
