<svg xmlns="http://www.w3.org/2000/svg" xmlns:xlink="http://www.w3.org/1999/xlink" viewBox="0 0 202.14 192.08"><defs><style>.cls-1{fill:url(#Degradado_sin_nombre_160);}</style><linearGradient id="Degradado_sin_nombre_160" y1="96.04" x2="202.14" y2="96.04" gradientUnits="userSpaceOnUse"><stop offset="0" stop-color="#47aebd"/><stop offset="1" stop-color="#a15cce"/></linearGradient></defs><g id="Capa_2" data-name="Capa 2"><g id="Capa_1-2" data-name="Capa 1"><path class="cls-1" d="M0,32.52c.9-3.43,1.89-6.8,4.15-9.66a19.94,19.94,0,0,1,15.76-8.08c6.25-.14,12.5,0,18.75,0h2.43c0-2.34-.08-4.55,0-6.75a8.27,8.27,0,0,1,16.54.19c0,1.45,0,2.9,0,4.34v2.08H117.2c0-1.91,0-3.86,0-5.8,0-5.16,3.53-8.83,8.35-8.79s8.18,3.7,8.22,8.74c0,1.9,0,3.8,0,6H136c5.92,0,11.84,0,17.76,0,12.33.06,21.1,8.83,21.12,21.16q0,28.82,0,57.62a9.06,9.06,0,0,1,0,1.38A2.94,2.94,0,0,1,169,95a10.65,10.65,0,0,1-.07-2V51h-2.21c-4.73,0-9.47,0-14.21,0-2.26,0-3.66-1.22-3.64-3s1.38-2.89,3.7-2.9c4.67,0,9.34,0,14,0h2.54c-.21-4.58,0-9-.71-13.3-1-6.12-6.85-10.86-13-11-6.5-.18-13-.06-19.53-.08h-2.11c0,2.27.09,4.48,0,6.68a8.27,8.27,0,0,1-16.53-.16c0-1.45,0-2.9,0-4.35V20.77H57.66c0,1.9,0,3.78,0,5.66,0,5.13-3.58,8.87-8.34,8.82s-8.18-3.74-8.24-8.77c0-1.83,0-3.67,0-5.7-.63,0-1.19-.12-1.76-.12-6,0-12.1,0-18.15,0C12.1,20.7,6,26.86,5.92,35.91c0,3,0,5.91,0,9.14H137.2a20.66,20.66,0,0,1,2.36,0,2.89,2.89,0,0,1,.39,5.66,11.32,11.32,0,0,1-2.74.2H5.92v56.67c0,.52,0,1,0,1.58.08,1.66-.11,3.18-1.94,3.89s-2.94-.42-4-1.65ZM51.73,17.63c0-3,0-5.92,0-8.88C51.75,7.13,51.13,6,49.4,6S47,7.14,47,8.73q0,8.88,0,17.75c0,1.6.69,2.79,2.37,2.79s2.37-1.13,2.36-2.77C51.72,23.54,51.73,20.59,51.73,17.63Zm76.12-.1c0-2.89,0-5.79,0-8.68,0-1.9-.94-3-2.45-2.88-1.73.13-2.28,1.26-2.27,2.86,0,5.85,0,11.7,0,17.56,0,1.6.57,2.72,2.26,2.91,1.44.16,2.45-1,2.47-2.89C127.88,23.45,127.85,20.49,127.85,17.53ZM0,150.13a2.58,2.58,0,0,1,.27.52c2.48,11.17,10,17.29,21.39,17.29H104a14.4,14.4,0,0,0,2-.05,2.48,2.48,0,0,0,2.41-2.63,4.9,4.9,0,0,0-1.84-2.88c-.6-.48-1.75-.34-2.66-.35H21.15c-9.06,0-15.2-6.18-15.22-15.26,0-7.56,0-15.12,0-22.69,0-1.7-.24-3.24-2.05-3.84s-3,.4-3.89,1.88ZM190.15,125.7a2.76,2.76,0,0,0,3.86.73,2.87,2.87,0,0,0,1-4,8.77,8.77,0,0,0-.74-1.16c-11.32-15.64-26.6-22.21-45.64-19.26-24.34,3.77-41.42,28.53-36.7,52.7,4.85,24.76,26.91,40.39,52,36.82,25.94-3.7,43.81-31.16,36.66-56.36-.6-2.09-2-3-3.74-2.52s-2.38,1.89-2,3.89c.45,2.3.85,4.62,1.33,7.21-1.68,0-3,0-4.4,0-2,0-3.31,1.12-3.38,2.82s1.28,3,3.35,3.09c1.37,0,2.74,0,4.09,0,.15,7.12-4.67,18.61-9.6,22.74-.9-1-1.76-2.1-2.75-3-1.47-1.42-3.13-1.45-4.37-.21a3,3,0,0,0,.23,4.38,41.67,41.67,0,0,0,3.45,2.76c-7.09,5.93-14.5,9-22.89,9.75-.15-.27-.26-.39-.26-.5,0-1.25,0-2.5-.07-3.75-.08-2.11-1.09-3.27-2.85-3.31s-3,1.17-3.06,3.34c-.05,1.36,0,2.72,0,4.06-6.6.3-17.48-4.21-22.88-9.57,1.08-.94,2.23-1.82,3.23-2.84a2.95,2.95,0,1,0-4.11-4.21c-1,1-2,2-3.14,3.22a39.39,39.39,0,0,1-9.48-22.81c1.51,0,2.81,0,4.12,0,2.16,0,3.44-1.15,3.46-2.94s-1.24-2.93-3.4-3c-1.37,0-2.73,0-4.22,0a39.53,39.53,0,0,1,9.67-23c1.11,1.25,2,2.35,3,3.29,1.46,1.4,3.16,1.39,4.37.12A2.94,2.94,0,0,0,134,120c-1-1-2.16-1.91-3.38-3a39.1,39.1,0,0,1,23-9.6v2.41c0,.72,0,1.45,0,2.17a3,3,0,0,0,3,3,3,3,0,0,0,2.86-3.14c0-1.42,0-2.85,0-4.24,6.56-.47,18.58,4.52,22.83,9.48-1,1-2.19,1.87-3.18,2.92a2.93,2.93,0,0,0-.13,4.23,2.84,2.84,0,0,0,4.23,0c1.05-1,2-2.11,3.18-3.45C187.9,122.66,189,124.22,190.15,125.7Zm-30.58,6a17.61,17.61,0,0,1,0,1.78c-.27,2.64.16,4.57,2.83,6.26,3.25,2.05,4.1,5.68,3,9.45a2.42,2.42,0,0,0,.78,2.86c2.65,2.54,5.23,5.18,7.82,7.79,1.89,1.9,2.11,3.55.69,4.94s-3.08,1-5-.82c-2.66-2.64-5.26-5.34-8-7.9a2.94,2.94,0,0,0-2.33-.59c-4.8,1.21-9.41-.88-11.25-5.25a9.08,9.08,0,0,1,4.23-11.62,2,2,0,0,0,1.27-2.11c-.06-3.22-.07-6.44,0-9.66.05-2.45,1.76-3.85,3.82-3.23a2.77,2.77,0,0,1,2.07,2.78c0,.13,0,.26,0,.4C159.56,128.47,159.56,130.11,159.57,131.75Zm.29,15a3.27,3.27,0,0,0-3.2-3.28,3.25,3.25,0,0,0-.06,6.5A3.25,3.25,0,0,0,159.86,146.75Zm-128.8-46c2.1,0,4.21,0,6.31,0,3.36.06,5.64,2.17,5.71,5.48.09,4.39.09,8.8,0,13.19a5.32,5.32,0,0,1-5.58,5.4q-6.41.09-12.8,0A5.46,5.46,0,0,1,19,119.3c-.1-4.33-.11-8.67,0-13a5.49,5.49,0,0,1,5.74-5.5C26.86,100.76,29,100.79,31.06,100.79Zm6,18.09v-12H25v12ZM43.1,142c0,2.17.06,4.34,0,6.5a5.43,5.43,0,0,1-5.69,5.53q-6.3.08-12.6,0A5.53,5.53,0,0,1,19,148.4q-.14-6.41,0-12.81a5.47,5.47,0,0,1,5.82-5.6c4.21,0,8.41-.05,12.61,0a5.38,5.38,0,0,1,5.64,5.55C43.16,137.71,43.1,139.87,43.1,142ZM25,148H37.08V136H25ZM129.51,78.77c0,2.16.06,4.33,0,6.5-.1,3-2,5.23-5,5.37q-7.08.31-14.17,0a5.17,5.17,0,0,1-4.94-5.41q-.15-6.5,0-13a5.32,5.32,0,0,1,5.29-5.52c4.52-.18,9.06-.18,13.58,0,3.2.13,5.09,2.36,5.22,5.56,0,.13,0,.26,0,.39v6.11ZM111.38,84.7h12.06v-12H111.38ZM93.06,154.08c-2,0-4.07,0-6.1,0-3.55,0-5.86-2.18-5.95-5.71-.11-4.2-.1-8.41,0-12.61.07-3.55,2.35-5.73,5.88-5.76q6.19-.06,12.41,0c3.47,0,5.71,2.12,5.79,5.59.1,4.33.11,8.67,0,13-.09,3.34-2.36,5.42-5.71,5.49C97.27,154.11,95.17,154.08,93.06,154.08Zm6-6v-12H87v12ZM160.33,78.8c0,2.17.08,4.34,0,6.5-.13,3-2,5.21-5,5.34-4.65.21-9.32.22-14,0a5.24,5.24,0,0,1-5.12-5.47c-.1-4.33-.11-8.67,0-13a5.32,5.32,0,0,1,5.33-5.5c4.45-.17,8.93-.18,13.38,0,3.31.12,5.23,2.32,5.39,5.62,0,.13,0,.26,0,.4v6.1Zm-6-6.15H142.27v12h12.06Zm-61.2,52.24c-2.1,0-4.2,0-6.3,0-3.34-.06-5.68-2.12-5.79-5.44-.15-4.39-.15-8.8,0-13.19.11-3.32,2.46-5.42,5.79-5.45,4.2,0,8.4,0,12.6,0a5.37,5.37,0,0,1,5.67,5.53c.1,4.33.11,8.67,0,13-.09,3.45-2.36,5.5-5.85,5.55C97.21,124.91,95.17,124.89,93.13,124.89Zm6-6V106.82H87v12.06Zm-37,11.1c2.1,0,4.2,0,6.3,0,3.23.06,5.58,2.15,5.68,5.33.13,4.46.13,8.94,0,13.4a5.41,5.41,0,0,1-5.68,5.34c-4.27.06-8.54.07-12.81,0a5.36,5.36,0,0,1-5.55-5.44q-.12-6.6,0-13.2A5.37,5.37,0,0,1,55.64,130C57.8,129.94,60,130,62.14,130Zm-6.09,18H68.14V136H56.05Zm-6-35.23c0-2.17-.06-4.34,0-6.5a5.39,5.39,0,0,1,5.54-5.46c4.26-.07,8.53-.06,12.8,0a5.44,5.44,0,0,1,5.72,5.51c.11,4.33.1,8.67,0,13a5.45,5.45,0,0,1-5.67,5.56q-6.4.09-12.81,0a5.43,5.43,0,0,1-5.6-5.6C50,117.1,50.05,114.93,50.06,112.77Zm6,6.08h12v-12h-12ZM53.13,77c3.38.39,4.59,1.32,4.5,3.29s-1.24,2.68-4.5,2.92c0,1.51,0,3.06,0,4.61,0,2.38-1.08,3.62-3,3.62s-2.9-1.21-2.94-3.62c0-1.5,0-3,0-4.72-3.09,0-6,0-8.84,0-3.47,0-4.75-2.25-3-5.2q4.8-7.92,9.69-15.79C46.42,59.92,48,59.22,50,59.74s3.05,2,3.07,4.49C53.16,68.43,53.13,72.63,53.13,77Zm-6.08.11V70.14c-1.58,2.58-2.84,4.66-4.23,6.92ZM26.47,83.19c2.26-3.6,4.91-7,6.64-10.88,2.09-4.65-.59-9.88-5.32-11.74a9.5,9.5,0,0,0-12.17,5.08c-1.08,2.51-.71,4.32,1.06,5.14s3.19,0,4.32-2.64l.08-.18a3.57,3.57,0,0,1,4.64-1.84,3.29,3.29,0,0,1,1.84,4.4,21.46,21.46,0,0,1-2.29,4.11c-2.62,3.71-5.33,7.34-8,11-.94,1.28-1.94,2.54-1.09,4.29s2.39,1.85,4,1.84c3.68,0,7.36,0,11,0,2.34,0,3.62-1.1,3.61-3s-1.34-2.94-3.64-3H24.57C25.36,84.75,26,84,26.47,83.19ZM94.12,69.31c-2.69,6.13-5.4,12.25-8.06,18.39-.8,1.83-.23,3.43,1.35,4.16a2.93,2.93,0,0,0,4-1.72q5.5-12.42,10.92-24.88c1.1-2.56-.15-4.5-3-4.55-4.4-.09-8.8,0-13.21,0a2.55,2.55,0,0,0-.39,0c-1.86.24-3,1.43-2.9,3.09a2.77,2.77,0,0,0,3,2.79c3,.06,6,0,9.41,0C94.77,67.77,94.46,68.55,94.12,69.31ZM67.5,89.8c3.35-8.12,6.57-16.3,9.81-24.47.79-2,.23-3.66-1.35-4.35s-3.29.08-4.14,2.16c-1.12,2.73-2.19,5.48-3.28,8.22-2.16,5.43-4.35,10.84-6.48,16.27-1,2.43.33,4.54,3.43,4.48A8.17,8.17,0,0,0,67.5,89.8Z"/></g></g></svg>