<svg xmlns="http://www.w3.org/2000/svg" xmlns:xlink="http://www.w3.org/1999/xlink" viewBox="0 0 383.37 318.37"><defs><style>.cls-1{fill:url(#Degradado_sin_nombre_160);}</style><linearGradient id="Degradado_sin_nombre_160" x1="42.76" y1="275.66" x2="340.73" y2="-22.31" gradientUnits="userSpaceOnUse"><stop offset="0" stop-color="#47aebd"/><stop offset="1" stop-color="#a15cce"/></linearGradient></defs><g id="Capa_2" data-name="Capa 2"><g id="Capa_1-2" data-name="Capa 1"><path class="cls-1" d="M0,25.17C4.58,12.8,12.77,6.89,24.15,7.71A22.48,22.48,0,0,1,45.07,28.07c.27,2.57.33,5.16.5,7.93,6.83-.8,12.93.4,18.19,4.56A22.56,22.56,0,0,1,72.6,59.11c0,17,.06,33.94-.06,50.91a8.15,8.15,0,0,0,2.68,6.51c16.16,15.77,32.17,31.69,48.3,47.5,16.82,16.48,25.15,36.5,25.18,60q0,42.12,0,84.22c0,7.57-2.52,10.09-10.1,10.1q-23.77,0-47.53,0c-7.54,0-10.06-2.57-10.06-10.15,0-17.59-.06-35.19,0-52.78a7.44,7.44,0,0,0-3-6.62c-17.17-13.67-34.16-27.58-51.33-41.26C12.06,195.88,3.29,180.94.61,162.42A8.93,8.93,0,0,0,0,160.69ZM96,303.08h37.75v-4.73c0-24.21-.16-48.42.05-72.62.17-20.61-7-37.88-21.84-52.19S82.4,144.5,67.64,130c-2.67-2.63-5.28-5.33-8.09-7.78a8.6,8.6,0,0,0-9.46-1.38c-3.43,1.41-5.78,4.23-5.45,7.76a14.69,14.69,0,0,0,3.57,8.16c16.9,18,34.05,35.8,51.08,53.7,3.52,3.7,3.51,8.27.25,11.27s-7.62,2.63-11-.89q-26.29-27.42-52.46-55a23.43,23.43,0,0,1-6.24-20.71,34.85,34.85,0,0,0,.49-5.58q0-43.05,0-86.1a21.48,21.48,0,0,0-.46-5.2c-1-3.87-4.51-6-8.6-5.49-4.34.55-6.18,2.7-6.19,7.29,0,41.18-.18,82.36-.07,123.53.05,16.84,6.88,30.71,20,41.33q28.31,23,56.81,45.8a10.47,10.47,0,0,1,4.25,9c-.13,14,0,28,0,41.92ZM57.57,104.85c0-15.72.08-31.39-.07-47.07,0-3.22-2.09-5.51-5.25-6.58-4.44-1.52-6.91.2-6.91,4.84q0,23,0,46c0,1.31.12,2.63.17,3.81Zm280.22-69c.16-2.89.21-5.51.49-8.1a22.51,22.51,0,0,1,16.4-19.3c8.75-2.48,19.46.66,24.39,8.06A22.83,22.83,0,0,1,383,28.23c.31,42.41.54,84.83.14,127.23-.19,20.26-8.75,37.24-24.35,50.2-17.56,14.57-35.44,28.75-53.28,43a7.78,7.78,0,0,0-3.3,6.89c.16,17.58.08,35.17.07,52.76,0,7.51-2.55,10-10.15,10.06q-23.76,0-47.52,0c-7.54,0-10-2.55-10-10.17q0-42.09,0-84.19c0-23.5,8.36-43.5,25.19-60,16.05-15.7,32-31.54,48-47.21a8.92,8.92,0,0,0,2.93-7.15c-.13-15.72.53-31.47-.23-47.14C309.81,47.49,319.56,34.33,337.79,35.84ZM287.33,303.18v-4.51c0-16.1.12-32.19-.07-48.29a11.7,11.7,0,0,1,4.91-10.19q28.24-22.51,56.24-45.32c12.95-10.54,19.8-24.31,19.86-41,.15-41.3,0-82.6,0-123.91,0-4.53-1.93-6.69-6.29-7.21-4.08-.48-7.58,1.71-8.52,5.61a24,24,0,0,0-.44,5.57q0,41.75,0,83.48a60.48,60.48,0,0,0,.56,8.19c1,7.36-.67,14-5.67,19.46q-13.44,14.58-27.5,28.59a8.43,8.43,0,0,1-6.64,2.1,9.75,9.75,0,0,1-5.64-4.66c-1.5-2.82-.28-5.77,2-8.14,8.5-8.79,16.93-17.65,25.43-26.44,2.29-2.36,3.73-5,3.25-8.38a8.76,8.76,0,0,0-6-7.5c-4.06-1.44-7.51-.17-10.54,2.82Q296.18,149.25,270,175c-13.7,13.46-20.44,29.81-20.43,49q0,37.62,0,75.25c0,1.31.13,2.62.21,4Zm50.38-197.35a10.33,10.33,0,0,0,.23-1.56c0-16.58,0-33.16.07-49.73,0-3.28-2.14-3.65-4.4-3.78-4.59-.26-7.9,3.49-7.91,8.89q-.06,21.32,0,42.63a22.11,22.11,0,0,0,.25,2.59ZM192.13,15.91c1.69-1.31,3.32-2.64,5-3.88,34.25-24.9,82.62-9.52,97.79,31.19,9.07,24.36,4.9,47.31-8.13,69.12-11.7,19.56-27.38,35.65-45.36,49.29-14,10.59-29,19.83-43.55,29.62-3.12,2.09-6.48,2.53-9.89.62-29.47-16.52-56.61-36-78.37-62.22-11.62-14-20.71-29.37-23.93-47.57C79.36,46.15,100.24,9.52,136.54,1.67c19.62-4.25,37.63-.34,53.41,12.49Zm92.59,53.45,1-.24C284,62,283.17,54.58,280.53,47.86c-14.32-36.47-58.69-43.17-82-17-4.35,4.86-8.36,4.64-13-.31C173.59,17.89,159,13,142.07,15.84c-28.55,4.85-45.24,32.54-42.13,59.93,1.8,15.91,9.25,29.36,19,41.62,19.63,24.71,44.75,42.79,71.64,58.66a4.54,4.54,0,0,0,3.91-.26c8.83-5.61,17.77-11.09,26.27-17.18,18.31-13.15,35.22-27.87,48.37-46.42C278.21,99.37,284.72,85.52,284.72,69.36ZM291.4,185.8a7.55,7.55,0,0,0-7.45,7.37,7.39,7.39,0,0,0,7.71,7.42,7.19,7.19,0,0,0,7.15-7.49A7.36,7.36,0,0,0,291.4,185.8ZM238.92,67.42C243,66,245.31,62.65,244.61,59c-.75-4-4-6.35-8.51-6.15a14.83,14.83,0,0,0-13.74,11.75c-.67,3.51-.54,7.18-.67,10.78a29.45,29.45,0,0,1-19.32,26.46,15.83,15.83,0,0,1-2.65.47c0-10.94.05-21.53,0-32.12,0-2.18.43-3.54,2.5-4.76,3-1.79,3.75-4.94,2.79-8.21a6.55,6.55,0,0,0-6.25-5.07c-4.36-.18-8.74-.18-13.09,0-3.2.13-5.26,2.09-6.28,5.07s-.54,6,2,7.39c3.88,2.09,3.49,5.16,3.46,8.49,0,7.61,0,15.22,0,22.83V102a4.7,4.7,0,0,1-1.15.27,6.44,6.44,0,0,1-1.44-.35c-10.15-4-16.71-11.2-18.87-21.91-.83-4.11-.59-8.43-.81-12.66-.43-8.43-7.76-15.14-15.89-14.53A7.41,7.41,0,0,0,144.17,67c1,.44,2.1.7,3.24,1.07-.57,26.32,11.46,43.35,37.34,50.33,0,5.83-.07,11.68,0,17.53,0,2.07-.43,3.3-2.5,4.32-3.1,1.52-4.35,4.4-3.62,7.85s2.92,5.63,6.41,5.83a107.7,107.7,0,0,0,13.08,0c3.6-.22,6-2.56,6.89-5.95s-.44-6-3.52-7.86a3.58,3.58,0,0,1-1.71-2.4c-.14-6.47-.08-12.94-.08-19.31,25.71-7.11,37.8-23.93,37.08-50.33C237.74,67.79,238.33,67.62,238.92,67.42Z"/></g></g></svg>