<svg xmlns="http://www.w3.org/2000/svg" xmlns:xlink="http://www.w3.org/1999/xlink" viewBox="0 0 81.94 40.98"><defs><style>.cls-1{fill:url(#Degradado_sin_nombre_160);}</style><linearGradient id="Degradado_sin_nombre_160" y1="-392.77" x2="81.94" y2="-392.77" gradientTransform="matrix(1, 0, 0, -1, 0, -372.28)" gradientUnits="userSpaceOnUse"><stop offset="0" stop-color="#47aebd"/><stop offset="1" stop-color="#a15cce"/></linearGradient></defs><g id="Capa_2" data-name="Capa 2"><g id="Capa_1-2" data-name="Capa 1"><g id="Capa_1-2-2" data-name="Capa 1-2"><path class="cls-1" d="M61.45,41H58c0-5.3.2-6.06-3-6.8C50.13,33,45.49,32,43.8,28.27a7.12,7.12,0,0,1,.53-6.51c3.49-6.59,4.36-12.23,2.4-15.49-2.29-3.81-9.24-3.82-11.56.06-2,3.3-1.08,8.92,2.43,15.4,1.59,2.92,1.19,5.16.57,6.51C36.5,32,31.9,33,27,34.14c-3.35.78-3.14,1.49-3.14,6.84h-3.4V38.85c0-4.3.33-6.78,5.41-8,5.74-1.33,11.42-2.51,8.69-7.54C26.52,8.45,32.29,0,41,0s14.43,8.14,6.37,23.35c-2.65,5,2.81,6.19,8.69,7.54,5.09,1.17,5.43,3.66,5.43,8Zm16.42-7.56c-4.4-1-8.5-1.91-6.51-5.66,6-11.41,1.6-17.51-4.78-17.51-4.32,0-7.68,2.79-7.68,7.94,0,4.33,2,7.43,3.09,10h3.58c-.58-2.56-5-8.75-2.62-12.76,1.41-2.36,5.82-2.37,7.22,0,1.3,2.15.62,6.19-1.82,10.79a6.14,6.14,0,0,0-.41,5.63c1,2.27,3.34,3.37,5.93,4.12,5.15,1.51,4.67.14,4.67,5.05h3.4V39.38C81.94,36.15,81.69,34.29,77.87,33.41ZM0,41H3.41c0-4.91-.47-3.55,4.67-5,2.6-.75,4.89-1.85,5.93-4.12a6.17,6.17,0,0,0-.41-5.63c-2.44-4.61-3.12-8.64-1.82-10.79,1.4-2.33,5.81-2.33,7.22,0,2.39,4-2,10.19-2.62,12.76H20c1.13-2.56,3.09-5.65,3.09-10,0-5.15-3.35-7.94-7.67-7.94-6.38,0-10.82,6.1-4.78,17.51,2,3.75-2.11,4.64-6.51,5.66C.27,34.3,0,36.17,0,39.4V41Z"/></g></g></g></svg>