<svg xmlns="http://www.w3.org/2000/svg" xmlns:xlink="http://www.w3.org/1999/xlink" viewBox="0 0 58.22 58.22"><defs><style>.cls-1{fill:url(#Degradado_sin_nombre_176);}</style><radialGradient id="Degradado_sin_nombre_176" cx="29.11" cy="29.11" r="29.11" gradientUnits="userSpaceOnUse"><stop offset="0" stop-color="#47aebd"/><stop offset="0.25" stop-color="#4aabbe"/><stop offset="0.45" stop-color="#54a2c0"/><stop offset="0.63" stop-color="#6692c3"/><stop offset="0.81" stop-color="#7e7cc7"/><stop offset="0.98" stop-color="#9d60cd"/><stop offset="1" stop-color="#a15cce"/></radialGradient></defs><g id="Capa_2" data-name="Capa 2"><g id="Capa_1-2" data-name="Capa 1"><path id="Capa_1-2-2" data-name="Capa 1-2" class="cls-1" d="M29.11,0A29.11,29.11,0,1,1,0,29.11,29.13,29.13,0,0,1,29.11,0ZM48.82,47.08c-.68-1-1.87-1.59-3.94-2.06-9.33-2.2-9.94-3.64-10.56-5a5.31,5.31,0,0,1,.5-4.8c4.19-7.9,5.07-14.61,2.49-18.89-1.63-2.71-4.55-4.21-8.21-4.21s-6.63,1.52-8.27,4.28c-2.59,4.34-1.68,11,2.54,18.81A5.27,5.27,0,0,1,23.9,40c-.64,1.42-1.48,2.89-10.59,5-2.07.48-3.26,1.09-3.94,2.06a26.66,26.66,0,0,0,39.42,0Zm1.58-1.9a26.68,26.68,0,1,0-42.58,0,9.18,9.18,0,0,1,5-2.52c4.91-1.12,8.19-2,8.92-3.64a3,3,0,0,0-.46-2.64c-4.65-8.57-5.54-16.11-2.5-21.21A11.63,11.63,0,0,1,29.1,9.71c4.51,0,8.22,2,10.28,5.38,3,5,2.17,12.6-2.43,21.28A3,3,0,0,0,36.52,39c.74,1.62,4,2.52,8.89,3.64a9.18,9.18,0,0,1,5,2.53Z"/></g></g></svg>