<svg xmlns="http://www.w3.org/2000/svg" viewBox="0 0 383.47 383.41"><defs><style>.cls-1{fill:#353b48;}</style></defs><g id="Capa_2" data-name="Capa 2"><g id="Capa_1-2" data-name="Capa 1"><path class="cls-1" d="M0,296.57V87c.23-1.07.56-2.13.69-3.21C6.24,36.59,46.05.44,93.55.22q98.07-.44,196.13,0a94.18,94.18,0,0,1,93.57,93.5q.5,98,0,196.09a93.79,93.79,0,0,1-63.91,88.31c-7.37,2.49-15.23,3.56-22.86,5.29H86.85a24.29,24.29,0,0,0-2.51-.64c-39.36-5.64-65.9-27.25-79.46-64.5C2.36,311.36,1.58,303.82,0,296.57ZM190.24,196.1a8.67,8.67,0,0,0-1.86-.63c-9.17-.7-18.35-2.1-27.5-1.9-32.91.72-59.34,27.36-59.9,59.76-.18,10.51,5.67,16.52,16.26,16.53q50.33,0,100.65,0a25.16,25.16,0,0,0,5.55-.6c.76-.17,1.87-1.15,1.89-1.78a4.44,4.44,0,0,0-1.19-3.11c-1.29-1.12-3.07-1.65-4.46-2.69a4.4,4.4,0,0,0-5.3-.47A12.71,12.71,0,0,1,198,256.49c-2.75-4.3-5.29-8.75-7.66-13.27-2.65-5.05-2.26-11.57,2.17-14.73s4.33-7.19,4.25-11.54c0-.89-.29-2.18-.9-2.57C188.87,209.88,187.35,203.74,190.24,196.1Zm27.47-4.71.38.79a5,5,0,0,1-1.05-.37c-10.78-6.48-9.06-5.33-14.77,4.22-5.12,8.57-5.23,7.91,3.38,12.69,1.69.94,2,1.87,1.88,3.8-.29,5.18,0,10.39-.13,15.58a4.46,4.46,0,0,1-1.37,3.22c-8,5.46-8,5.42-3.27,13.67,4.91,8.52,4,9.48,13.17,3.94a4.16,4.16,0,0,1,3.46.14c4.8,2.55,9.52,5.26,14.17,8.08a4.42,4.42,0,0,1,2.05,2.84c.68,9.63.62,9.63,10.19,9.63h.37c8.76-.1,9.78,1.54,9.6-9.2a4.62,4.62,0,0,1,2-3.26c4.61-2.86,9.36-5.53,14.13-8.12a4.07,4.07,0,0,1,3.16-.32C284,253,284,253.09,289,244.37c4.66-8.2,6-7.83-3.17-12.75-1.93-1.05-2.15-2.22-1.88-4.19.45-3.32,1.22-6.83.58-10-1.17-5.83.1-9.62,6-11.66,2.38-.83,2.85-2.92,1.5-5.23-2.08-3.55-4.1-7.12-6.16-10.68-1.41-2.44-3.29-2.74-5.65-1.31-2.11,1.29-4.3,2.46-5.51,3.14-6.13-3.2-11.62-6-17-9a3.58,3.58,0,0,1-1.62-2.41c-1-9.83-.94-9.83-10.79-9.84-10,0-9.55-.7-9.52,9.17a4.1,4.1,0,0,1-1.65,3.1C228.68,185.77,223.17,188.54,217.71,191.39Zm-16.82-44.57a33.34,33.34,0,1,0-66.68.48,33.34,33.34,0,0,0,66.68-.48Zm44.94,89.12a15.9,15.9,0,1,0-16-15.77A15.83,15.83,0,0,0,245.83,235.94Z"/></g></g></svg>